<svg xmlns="http://www.w3.org/2000/svg" width="50.422" height="81.164" viewBox="952 1862.336 50.422 81.164"><g data-name="Groupe 16017"><g data-name="Groupe 16008"><g data-name="Groupe 15997"><g data-name="Groupe 15996"><path d="M974.728 1868.516c-1.283 5.097 2.391 7.378 7.32 8.618 4.93 1.243 9.25.973 10.53-4.124 1.266-5.02-2.256-7.91-7.185-9.152-4.928-1.24-9.358-.532-10.665 4.658Z" fill="#fff" fill-rule="evenodd" data-name="Tracé 55254"/><path d="M981.803 1878.104c-2.976-.749-5.084-1.77-6.449-3.122-1.744-1.73-2.28-3.987-1.595-6.71 1.272-5.054 5.494-6.993 11.878-5.384 2.855.72 5.014 1.885 6.42 3.465 1.646 1.853 2.162 4.239 1.491 6.901-.918 3.651-3.34 5.501-7.198 5.501-1.322 0-2.809-.212-4.547-.651Zm-6.105-9.344c-.508 2.017-.159 3.587 1.065 4.801 1.102 1.093 2.91 1.944 5.528 2.604 5.6 1.41 8.353.442 9.317-3.399.517-2.048.174-3.711-1.047-5.084-1.117-1.257-2.989-2.244-5.413-2.854-1.313-.331-2.523-.498-3.595-.498-3.189 0-5.104 1.449-5.855 4.43Z" fill="#272733" fill-rule="evenodd" data-name="Tracé 55255"/></g></g><g data-name="Groupe 15999"><g data-name="Groupe 15998"><path d="M952.291 1943.205a1 1 0 0 1-.29-.71c0-.21.03-5.193.61-9.014.588-3.876 3.383-6.75 7.868-8.093.873-.261 1.908-.46 3.003-.67 1.956-.376 4.172-.8 5.682-1.663 1.363-.778 1.765-4.976 1.615-7.708a1.002 1.002 0 0 1 .998-1.055h10.867a1.001 1.001 0 0 1 1 1.055c-.153 2.731.248 6.928 1.614 7.708 1.508.863 3.724 1.287 5.68 1.662 1.095.211 2.13.41 3.001.671 4.49 1.343 7.284 4.218 7.87 8.093.581 3.821.612 8.804.613 9.014.001.265-.104.521-.29.71a1.006 1.006 0 0 1-.71.295H953c-.266 0-.522-.107-.709-.295Zm47.541-9.424c-.596-3.932-3.845-5.693-6.468-6.477-.773-.233-1.76-.422-2.803-.622-2.109-.405-4.499-.863-6.295-1.89-2.419-1.381-2.677-6.177-2.653-8.5h-8.804c.024 2.323-.234 7.119-2.653 8.5-1.798 1.027-4.188 1.486-6.297 1.89-1.044.2-2.03.39-2.804.622-2.62.784-5.869 2.545-6.467 6.478-.406 2.679-.533 6.062-.57 7.718h46.387c-.039-1.656-.167-5.04-.573-7.719Z" fill="#272733" fill-rule="evenodd" data-name="Tracé 55257"/></g></g><g data-name="Groupe 16001"><g data-name="Groupe 16000"><path d="M961.734 1897.338s-2.293-9.795.375-15.243c2.875-5.872 7.192-9.228 15.102-9.228 7.908 0 12.226 3.356 15.101 9.228 2.668 5.448.374 15.243.374 15.243 3.595-.72 2.921 3.215 1.798 4.993-.93 1.476-.95 1.634-1.513 3.254-.809 2.337-2.666.72-2.666.72-1.08 2.997-1.844 3.706-6.143 7.669-3.744 3.455-5.059 3.417-6.95 3.417-1.894 0-3.179.038-6.952-3.417-4.315-3.946-5.065-4.672-6.143-7.669 0 0-1.857 1.617-2.666-.72-.562-1.62-.582-1.778-1.514-3.254-1.125-1.778-1.798-5.713 1.797-4.993Z" fill="#fff" fill-rule="evenodd" data-name="Tracé 55258"/><path d="M969.585 1914.712c-3.858-3.529-4.996-4.622-5.992-6.99-.24.077-.505.128-.785.128-.61 0-1.718-.252-2.3-1.936l-.123-.351c-.439-1.27-.495-1.434-1.292-2.697-.735-1.16-1.562-3.614-.656-5.261.417-.758 1.14-1.22 2.061-1.329-.536-2.917-1.515-10.07.713-14.62 3.314-6.771 8.25-9.789 16-9.789 7.751 0 12.685 3.018 16 9.789 2.227 4.55 1.248 11.703.711 14.62.921.109 1.643.571 2.06 1.328.907 1.646.081 4.1-.652 5.26-.798 1.265-.854 1.429-1.293 2.699l-.12.35c-.585 1.685-1.693 1.937-2.303 1.937-.28 0-.547-.051-.787-.128-1.016 2.405-2.175 3.473-5.987 6.988-3.72 3.433-5.319 3.681-7.569 3.681l-.06-1-.06 1h-.062c-2.16 0-3.68-.178-7.504-3.679Zm7.748 1.679c1.647 0 2.735 0 6.151-3.152 4.23-3.9 4.88-4.498 5.88-7.273a1.002 1.002 0 0 1 1.591-.421c.147.123.457.305.66.305.196 0 .376-.493.411-.593l.12-.347c.481-1.39.6-1.697 1.493-3.114.651-1.03.938-2.597.591-3.226-.056-.104-.174-.318-.74-.318a3.12 3.12 0 0 0-.608.067 1 1 0 0 1-1.17-1.209c.022-.094 2.184-9.506-.298-14.575-2.975-6.075-7.223-8.668-14.203-8.668-6.98 0-11.229 2.593-14.203 8.668-2.479 5.061-.322 14.481-.3 14.576a1 1 0 0 1-1.17 1.208 3.127 3.127 0 0 0-.607-.067c-.567 0-.685.214-.742.318-.346.629-.058 2.197.594 3.227.894 1.416 1.012 1.723 1.492 3.113l.121.348c.035.099.215.592.412.592.202 0 .512-.182.653-.299a.995.995 0 0 1 .908-.214c.32.083.577.319.69.629.977 2.72 1.565 3.327 5.877 7.271 3.444 3.154 4.522 3.154 6.153 3.154h.244Z" fill="#272733" fill-rule="evenodd" data-name="Tracé 55259"/></g></g><g data-name="Groupe 16003"><g data-name="Groupe 16002"><path d="M966.908 1872.867c8.807-4.601 16.213 0 16.213 0 18.254 2.017 11.865 25.036 11.865 25.036h-.009c-.393-.529-1.108-.801-2.29-.565.25-1.676-1.81-3.718-5.046-6.115-3.237-2.396-4.52-5.873-4.52-5.873s-3.238 6.112-11.344 7.731c-8.109 1.618-9.818 2.76-10.043 4.257-1.18-.236-1.896.036-2.289.565h-.01s-4.904-18.57 7.473-25.036Z" fill="#e76936" fill-rule="evenodd" data-name="Tracé 55260"/><path d="M958.467 1898.158c-.209-.789-4.957-19.42 7.978-26.178 2.741-1.432 5.628-2.158 8.58-2.158 4.404 0 7.593 1.612 8.418 2.075 4.777.575 8.368 2.594 10.676 6.005 5.228 7.724 1.972 19.76 1.831 20.268-.12.433-.524.733-.973.733-.317 0-.615-.151-.803-.404-.05-.068-.183-.247-.693-.247-.176 0-.378.023-.599.067a1.01 1.01 0 0 1-.216.019 1 1 0 0 1-.959-1.286c.005-1.04-1.562-2.729-4.66-5.025-2.016-1.492-3.32-3.358-4.066-4.677-1.57 2.04-5.03 5.518-11.008 6.711-6.228 1.243-9.08 2.3-9.249 3.426a1.003 1.003 0 0 1-1.186.832 3.114 3.114 0 0 0-.599-.067c-.508 0-.64.179-.69.247a1.002 1.002 0 0 1-.804.404h-.01a1 1 0 0 1-.968-.745Zm8.904-24.405c-9.682 5.058-8.045 18.37-7.25 22.592.27-.065.585-.105.921-.092.894-1.728 3.731-2.794 10.54-4.153 7.51-1.499 10.626-7.163 10.655-7.218.184-.347.541-.544.95-.529.392.025.734.28.872.649.011.032 1.235 3.239 4.176 5.417 3.292 2.438 4.965 4.23 5.373 5.835.262.009.498.042.711.095.662-3.217 1.92-11.753-1.859-17.331-1.999-2.95-5.178-4.685-9.448-5.157a1.018 1.018 0 0 1-.416-.144c-.032-.018-3.135-1.895-7.57-1.895-2.627 0-5.202.65-7.655 1.931Z" fill="#272733" fill-rule="evenodd" data-name="Tracé 55261"/></g></g><g data-name="Groupe 16005"><g data-name="Groupe 16004"><path d="M984.762 1923.923c2.515 1.439 6.494 1.703 8.89 2.423 2.4.718 6.451 2.55 7.168 7.285.576 3.793.602 8.869.602 8.869H953s.023-5.076.6-8.869c.718-4.735 4.77-6.567 7.168-7.285 2.398-.72 6.375-.984 8.892-2.423a2.17 2.17 0 0 0 .307-.219l7.304 7.744 7.184-7.744c.098.08.197.158.307.219Z" fill="#e76936" fill-rule="evenodd" data-name="Tracé 55262"/><path d="M952.291 1943.205a1 1 0 0 1-.29-.71c0-.21.03-5.193.61-9.014.588-3.876 3.383-6.75 7.868-8.093.873-.261 1.908-.46 3.003-.67 1.956-.376 4.172-.8 5.688-1.666.058-.033.11-.079.163-.122a.999.999 0 0 1 1.361.087l6.572 6.967 6.456-6.96a.999.999 0 0 1 1.367-.094c.053.043.104.089.17.125 1.507.863 3.723 1.287 5.678 1.662 1.096.211 2.131.41 3.002.671 4.49 1.343 7.284 4.218 7.87 8.093.581 3.821.612 8.804.613 9.014.001.265-.104.521-.29.71a1.006 1.006 0 0 1-.71.295H953c-.266 0-.522-.107-.709-.295Zm47.541-9.424c-.596-3.932-3.845-5.693-6.468-6.477-.773-.233-1.76-.422-2.803-.622-1.972-.379-4.189-.804-5.933-1.694l-6.623 7.139a.998.998 0 0 1-.73.321h-.004a.997.997 0 0 1-.727-.314l-6.744-7.15c-1.75.894-3.968 1.319-5.94 1.698-1.045.2-2.03.39-2.805.622-2.62.784-5.869 2.545-6.467 6.478-.406 2.679-.533 6.062-.57 7.718h46.387c-.039-1.656-.167-5.04-.573-7.719Z" fill="#272733" fill-rule="evenodd" data-name="Tracé 55263"/></g></g><g data-name="Groupe 16007"><g data-name="Groupe 16006"><path d="M969.783 1923.923c.11-.061.211-.139.31-.219 0 0 3.573 2.429 7.18 2.429 3.684 0 7.182-2.429 7.182-2.429.098.08.197.158.307.219 1.136.651 2.572 1.054 4.023 1.375v.005l-11.512 12.633-11.513-12.633v-.005c1.453-.321 2.888-.724 4.023-1.375Z" fill="#fff" fill-rule="evenodd" data-name="Tracé 55264"/><path d="m976.534 1938.61-11.514-12.633a1.017 1.017 0 0 1-.26-.679 1 1 0 0 1 .784-.976c1.162-.257 2.638-.633 3.75-1.27.058-.034.111-.079.164-.122.343-.28.827-.302 1.196-.053.033.022 3.358 2.256 6.62 2.256 3.315 0 6.58-2.229 6.612-2.252a1.004 1.004 0 0 1 1.203.049c.053.043.104.089.17.125 1.106.634 2.581 1.01 3.742 1.267a1.006 1.006 0 0 1 .523 1.655l-11.51 12.633a1 1 0 0 1-1.479 0Zm7.913-13.717c-1.2.721-4.094 2.24-7.174 2.24-3.027 0-5.96-1.527-7.17-2.244-.774.419-1.643.731-2.48.974l9.65 10.589 9.65-10.59c-.837-.241-1.704-.553-2.476-.969Z" fill="#272733" fill-rule="evenodd" data-name="Tracé 55265"/></g></g></g><g data-name="Groupe 16009"><path d="M973.16 1912.463a1 1 0 1 0 0-2c-6.12 0-10.422-1.312-12.44-3.796-1.658-2.04-1.236-4.171-1.232-4.192a.998.998 0 0 0-.773-1.183.993.993 0 0 0-1.184.773c-.026.125-.614 3.093 1.637 5.863 2.445 3.009 7.153 4.535 13.992 4.535Z" fill="#272733" fill-rule="evenodd" data-name="Tracé 55266"/></g><g data-name="Groupe 16015"><g data-name="Groupe 16010"><path d="M955.252 1900.137c0-3.775 1.562-6.836 3.494-6.855v-.002h1.258v.422c1.422.961 2.557 3.475 2.557 6.435 0 2.959-1.135 5.474-2.557 6.435v.423h-1.258v-.002c-1.932-.021-3.494-3.082-3.494-6.856Z" fill="#fff" fill-rule="evenodd" data-name="Tracé 55267"/><path d="M958.735 1907.993c-2.555-.028-4.483-3.405-4.483-7.856 0-4.451 1.928-7.829 4.494-7.857h1.258c.53 0 .963.412.998.932 1.548 1.364 2.56 4.054 2.56 6.925 0 2.87-1.012 5.561-2.56 6.924a1 1 0 0 1-.998.934h-1.258l-.01-.002Zm.71-2.249c1.051-.711 2.116-2.866 2.116-5.607 0-2.742-1.065-4.896-2.117-5.607a1.044 1.044 0 0 1-.256-.249l-.432.001c-1.182.011-2.504 2.518-2.504 5.855 0 3.331 1.32 5.837 2.501 5.858h.434a.99.99 0 0 1 .257-.251Z" fill="#272733" fill-rule="evenodd" data-name="Tracé 55268"/></g><g data-name="Groupe 16011"><path d="M958.654 1905.549c0 .895.584 1.621 1.303 1.621h1.303c.718 0 1.301-.726 1.301-1.621v-10.825c0-.895-.583-1.62-1.3-1.62h-1.304c-.719 0-1.303.725-1.303 1.62v10.825Z" fill="#e76936" fill-rule="evenodd" data-name="Tracé 55269"/><path d="M957.654 1905.549v-10.825c0-1.444 1.033-2.62 2.303-2.62h1.303c1.268 0 2.301 1.176 2.301 2.62v10.825c0 1.446-1.033 2.621-2.3 2.621h-1.304c-1.27 0-2.303-1.175-2.303-2.621Zm2.303-11.445c-.093 0-.303.234-.303.62v10.825c0 .387.21.621.303.621h1.303c.092 0 .301-.234.301-.621v-10.825c0-.386-.209-.62-.3-.62h-1.304Z" fill="#272733" fill-rule="evenodd" data-name="Tracé 55270"/></g><g data-name="Groupe 16012"><path d="M999.168 1900.137c0-3.775-1.56-6.836-3.492-6.855v-.002h-1.258v.422c-1.422.961-2.559 3.475-2.559 6.435 0 2.959 1.137 5.474 2.56 6.435v.423h1.257v-.002c1.931-.021 3.492-3.082 3.492-6.856Z" fill="#fff" fill-rule="evenodd" data-name="Tracé 55271"/><path d="M993.42 1907.061c-1.549-1.363-2.56-4.054-2.56-6.924s1.011-5.561 2.56-6.925a1 1 0 0 1 .998-.932h.002l1.266.002c2.555.026 4.482 3.403 4.482 7.855 0 4.45-1.926 7.828-4.492 7.858h-1.258a1 1 0 0 1-.998-.934Zm1.814-12.781a1.014 1.014 0 0 1-.256.25c-1.053.712-2.119 2.866-2.119 5.607 0 2.74 1.066 4.895 2.12 5.607a.98.98 0 0 1 .254.25l.432-.001c1.182-.013 2.503-2.52 2.503-5.856 0-3.337-1.32-5.844-2.492-5.857h-.442Z" fill="#272733" fill-rule="evenodd" data-name="Tracé 55272"/></g><g data-name="Groupe 16013"><path d="M995.766 1905.549c0 .895-.582 1.621-1.3 1.621h-1.304c-.719 0-1.303-.726-1.303-1.621v-10.825c0-.895.584-1.62 1.303-1.62h1.303c.72 0 1.301.725 1.301 1.62v10.825Z" fill="#e76936" fill-rule="evenodd" data-name="Tracé 55273"/><path d="M990.86 1905.549v-10.825c0-1.444 1.033-2.62 2.302-2.62h1.303c1.268 0 2.301 1.176 2.301 2.62v10.825c0 1.446-1.033 2.621-2.3 2.621h-1.304c-1.269 0-2.303-1.175-2.303-2.621Zm2.302-11.445c-.093 0-.303.234-.303.62v10.825c0 .387.21.621.303.621h1.303c.092 0 .301-.234.301-.621v-10.825c0-.386-.209-.62-.3-.62h-1.304Z" fill="#272733" fill-rule="evenodd" data-name="Tracé 55274"/></g><g data-name="Groupe 16014"><path d="M958.672 1894.823a1 1 0 0 0 1-1c0-9.671 7.868-17.539 17.54-17.539 9.67 0 17.538 7.868 17.538 17.539a1 1 0 1 0 2 0c0-10.774-8.766-19.539-19.539-19.539-10.774 0-19.539 8.765-19.539 19.539a1 1 0 0 0 1 1Z" fill="#272733" fill-rule="evenodd" data-name="Tracé 55275"/></g></g><g data-name="Groupe 16016"><path d="M971.285 1911.483c0 .73.651 1.322 1.45 1.322h4.95c.797 0 1.448-.592 1.448-1.322v-.04c0-.731-.65-1.321-1.449-1.321h-4.95c-.798 0-1.449.59-1.449 1.321v.04Z" fill="#fff" fill-rule="evenodd" data-name="Tracé 55276"/><path d="M970.285 1911.443c0-1.28 1.1-2.321 2.45-2.321h4.95c1.35 0 2.448 1.041 2.448 2.361 0 1.28-1.099 2.322-2.449 2.322h-4.95c-1.35 0-2.449-1.042-2.449-2.362Zm2.45-.321c-.265 0-.45.169-.45.361 0 .152.185.322.45.322h4.95c.263 0 .448-.17.448-.362 0-.152-.185-.321-.449-.321h-4.95Z" fill="#272733" fill-rule="evenodd" data-name="Tracé 55277"/></g></g></svg>