<svg xmlns="http://www.w3.org/2000/svg" width="14" height="20" viewBox="0 0 14 20">
  <g id="Environment_Bulb" data-name="Environment / Bulb" transform="translate(-5 -2)">
    <path id="Vector" d="M9,21h6M12,3a6,6,0,0,0-5.019,9.289c.954,1.453,1.43,2.178,1.492,2.287a2.266,2.266,0,0,1,.519,1.734C9,16.434,9,16.623,9,17a1,1,0,0,0,1,1h4a1,1,0,0,0,1-1c0-.377,0-.566.008-.69a2.265,2.265,0,0,1,.518-1.734c.062-.109.539-.834,1.493-2.287A6,6,0,0,0,12,3Z" fill="none" stroke="#272733" stroke-linecap="round" stroke-linejoin="round" stroke-width="2"/>
  </g>
</svg>
