<svg xmlns="http://www.w3.org/2000/svg" width="77.176" height="60.771" viewBox="512 1882.729 77.176 60.771"><g data-name="Groupe 13178"><path d="M522.196 1889.606v37.721h57.163v-37.72h-57.163Z" fill="#e76936" fill-rule="evenodd" data-name="Tracé 34967"/><g data-name="Groupe 13177"><path d="M583.534 1931.95c1.442-1.18 2.361-3.15 2.361-5.118v-37.276c0-3.677-3.018-6.827-6.825-6.827h-56.963c-3.677 0-6.826 3.019-6.826 6.827v37.276c0 2.1.92 3.938 2.361 5.118-3.15 0-5.642 2.625-5.642 5.775 0 3.15 2.625 5.775 5.774 5.775h65.627c3.15 0 5.775-2.625 5.775-5.775 0-3.15-2.494-5.775-5.642-5.775Zm-66.548-5.118v-37.276c0-2.89 2.363-5.12 5.12-5.12h56.964c2.887 0 5.12 2.363 5.12 5.12v37.276c0 2.886-2.363 5.118-5.12 5.118h-20.345c-.394 0-.786.393-.786.788v2.493h-14.702v-2.493c0-.395-.392-.788-.786-.788h-20.344c-2.888 0-5.12-2.362-5.12-5.118Zm53.29 6.824h7.351v1.575h-7.351v-1.575Zm-46.727 0h7.35v1.575h-7.35v-1.575Zm59.852 8.138h-65.627c-2.23 0-4.069-1.837-4.069-4.07 0-2.23 1.84-4.068 4.069-4.068h4.07v2.495c0 .392.392.786.786.786h9.058c.393 0 .786-.394.786-.786v-2.495h9.058v2.495c0 .392.393.786.786.786h16.407c.394 0 .789-.394.789-.786v-2.495h9.055v2.495c0 .392.394.786.79.786h9.054c.394 0 .79-.394.79-.786v-2.495h4.067c2.232 0 4.069 1.839 4.069 4.069.132 2.232-1.707 4.069-3.938 4.069Z" fill="#272733" fill-rule="evenodd" data-name="Tracé 34960"/><path d="M521.844 1928.276h57.488c.394 0 .788-.395.788-.788v-38.196c0-.393-.394-.788-.788-.788h-57.488c-.394 0-.789.395-.789.788v38.196c0 .393.395.788.789.788Zm.919-38.195h55.783v36.487h-55.783v-36.487Z" fill="#272733" fill-rule="evenodd" data-name="Tracé 34961"/><path d="M526.83 1908.98h10.632c.395 0 .789-.392.789-.788 0-.392-.394-.787-.79-.787h-10.63c-.393 0-.787.395-.787.787 0 .396.261.788.787.788Z" fill="#272733" fill-rule="evenodd" data-name="Tracé 34962"/><path d="M542.45 1910.686h-15.62c-.392 0-.786.396-.786.788 0 .395.394.787.787.787h15.62c.394 0 .786-.392.786-.787 0-.392-.392-.788-.786-.788Z" fill="#272733" fill-rule="evenodd" data-name="Tracé 34963"/><path d="M542.45 1913.968h-15.62c-.392 0-.786.395-.786.787 0 .395.261.788.787.788h15.62c.394 0 .786-.393.786-.788 0-.392-.392-.787-.786-.787Z" fill="#272733" fill-rule="evenodd" data-name="Tracé 34964"/><path d="M542.45 1917.249h-15.62c-.392 0-.786.395-.786.787 0 .396.394.788.787.788h15.62c.394 0 .786-.392.786-.788 0-.392-.392-.787-.786-.787Z" fill="#272733" fill-rule="evenodd" data-name="Tracé 34965"/><path d="M542.45 1920.53h-15.62c-.392 0-.786.395-.786.788 0 .395.261.787.787.787h15.62c.394 0 .786-.392.786-.787 0-.393-.392-.788-.786-.788Z" fill="#272733" fill-rule="evenodd" data-name="Tracé 34966"/></g></g></svg>