<svg id="dataset_linked_24dp_5F6368" xmlns="http://www.w3.org/2000/svg" width="24" height="24" viewBox="0 0 24 24">
  <g id="Group_16315" data-name="Group 16315">
    <rect id="Rectangle_3720" data-name="Rectangle 3720" width="24" height="24" transform="translate(0)" fill="none"/>
  </g>
  <g id="Group_16317" data-name="Group 16317" transform="translate(3 3)">
    <g id="Group_16316" data-name="Group 16316">
      <path id="Path_55344" data-name="Path 55344" d="M8.09,17H7V13h3.69A5.977,5.977,0,0,1,14,12h6a6.638,6.638,0,0,1,1,.09V5a2.006,2.006,0,0,0-2-2H5A2.006,2.006,0,0,0,3,5V19a2.006,2.006,0,0,0,2,2H8.81A5.984,5.984,0,0,1,8,18,6.638,6.638,0,0,1,8.09,17ZM13,7h4v4H13ZM7,7h4v4H7Z" transform="translate(-3 -3)" fill="#e76936"/>
      <path id="Path_55345" data-name="Path 55345" d="M12,18a2.006,2.006,0,0,1,2-2h2V14H14a4,4,0,0,0,0,8h2V20H14A2.006,2.006,0,0,1,12,18Z" transform="translate(-3 -3)" fill="#e76936"/>
      <path id="Path_55346" data-name="Path 55346" d="M20,14H18v2h2a2,2,0,0,1,0,4H18v2h2a4,4,0,0,0,0-8Z" transform="translate(-3 -3)" fill="#e76936"/>
      <rect id="Rectangle_3721" data-name="Rectangle 3721" width="6" height="2" transform="translate(11 14)" fill="#e76936"/>
    </g>
  </g>
</svg>
