<svg xmlns="http://www.w3.org/2000/svg" width="183.276" height="319.12" viewBox="0 0 183.276 319.12">
  <g id="Group_16306" data-name="Group 16306" transform="translate(-746.43 -362.839)">
    <g id="Group_16288" data-name="Group 16288" transform="translate(839.04 370.257)">
      <path id="Path_55330" data-name="Path 55330" d="M868.558,367.567c-16.242,8.412-28.7,22.9-37.651,38.847s-14.727,33.45-20.444,50.825l-5,89.609c18.9-32.151,34.066-69.946,38.166-107.013l-12.576-1.12c8.431-1.288,15.51-7.4,20.012-14.641s6.822-15.6,9.084-23.823L844.8,402.532A56.865,56.865,0,0,0,868.558,367.567Z" transform="translate(-805.46 -367.567)" fill="#455a64"/>
    </g>
    <g id="Group_16290" data-name="Group 16290" transform="translate(839.04 370.257)">
      <g id="Group_16289" data-name="Group 16289">
        <path id="Path_55331" data-name="Path 55331" d="M868.558,367.567c-16.242,8.412-28.7,22.9-37.651,38.847s-14.727,33.45-20.444,50.825l-5,89.609c18.9-32.151,34.066-69.946,38.166-107.013l-12.576-1.12c8.431-1.288,15.51-7.4,20.012-14.641s6.822-15.6,9.084-23.823L844.8,402.532A56.865,56.865,0,0,0,868.558,367.567Z" transform="translate(-805.46 -367.567)" fill="#ec9850"/>
      </g>
    </g>
    <g id="Group_16293" data-name="Group 16293" transform="translate(795.614 362.839)">
      <path id="Path_55333" data-name="Path 55333" d="M818.409,570.532s-41.02-49.1-40.546-95.964h16.57s-18-11.837-16.574-18.464,1.9-31.719,1.9-31.719l15.151,3.787s-11.364-5.681-12.783-14.677,3.313-50.656,3.313-50.656,18.464,19.41,24.145,39.294,20.593,43.081,16.214,103.68S818.409,570.532,818.409,570.532Z" transform="translate(-777.78 -362.839)" fill="#e76936"/>
    </g>
    <g id="Group_16294" data-name="Group 16294" transform="translate(857.022 416.293)">
      <path id="Path_55334" data-name="Path 55334" d="M816.938,555.784s44.44-29.6,54.314-67.389l-13.323-3.626s17.06-5.577,17.366-11.217,5.414-25.918,5.414-25.918l-13.009-.268s10.378-2.082,13.488-9,8.418-41.451,8.418-41.451-19.092,11.566-28.009,26.308-25.982,30.132-35.72,79.81S816.938,555.784,816.938,555.784Z" transform="translate(-816.922 -396.911)" fill="#e76936"/>
    </g>
    <g id="Group_16296" data-name="Group 16296" transform="translate(814.473 405.645)">
      <g id="Group_16295" data-name="Group 16295">
        <path id="Path_55335" data-name="Path 55335" d="M789.806,390.124a2.425,2.425,0,0,1,.152.507c.092.388.213.885.362,1.511.313,1.39.753,3.34,1.311,5.824.573,2.529,1.236,5.631,1.957,9.242s1.586,7.714,2.421,12.273c1.762,9.1,3.619,19.986,5.53,32.094,1.853,12.118,3.7,25.469,5.344,39.52,1.608,14.06,2.854,27.483,3.815,39.7.9,12.228,1.577,23.248,1.938,32.512.229,4.631.334,8.823.444,12.5s.183,6.851.2,9.443c.022,2.545.039,4.545.052,5.968,0,.643-.006,1.155-.009,1.553a2.274,2.274,0,0,1-.033.529,2.525,2.525,0,0,1-.056-.527c-.02-.4-.046-.908-.078-1.552-.052-1.423-.124-3.42-.217-5.963-.072-2.59-.183-5.758-.353-9.435s-.306-7.865-.573-12.49c-.441-9.255-1.18-20.263-2.126-32.477-1-12.209-2.275-25.62-3.882-39.669-1.64-14.04-3.462-27.383-5.27-39.5-1.865-12.105-3.659-22.992-5.34-32.1-.8-4.565-1.6-8.676-2.292-12.292s-1.29-6.729-1.809-9.267c-.491-2.5-.875-4.46-1.15-5.858-.115-.632-.207-1.136-.278-1.527A2.242,2.242,0,0,1,789.806,390.124Z" transform="translate(-789.801 -390.124)" fill="#272733"/>
      </g>
    </g>
    <g id="Group_16297" data-name="Group 16297" transform="translate(746.43 486.039)">
      <path id="Path_55336" data-name="Path 55336" d="M830.553,555.926s-37.537-42.592-49.192-68.338l8.8-3.759c-6.378,1.051-12.912-1.69-17.857-5.852s-8.577-9.638-12.138-15.033l11.591-1.958a43.089,43.089,0,0,1-25.325-19.619c13.677,2.25,26.052,9.763,36.249,19.153,8.258,7.6,15.251,16.432,21.966,25.452A86.641,86.641,0,0,1,813.176,500C819.483,513.038,830.575,540.284,830.553,555.926Z" transform="translate(-746.43 -441.367)" fill="#e76936"/>
    </g>
    <g id="Group_16299" data-name="Group 16299" transform="translate(847.079 441.083)">
      <g id="Group_16298" data-name="Group 16298">
        <path id="Path_55337" data-name="Path 55337" d="M875.447,412.712a1.794,1.794,0,0,1-.168.436l-.573,1.241c-.549,1.141-1.31,2.722-2.275,4.73-2.007,4.092-4.853,10.042-8.3,17.425-6.9,14.762-15.988,35.365-24.964,58.548-8.958,23.2-16.1,44.562-20.921,60.125-2.418,7.78-4.316,14.1-5.584,18.472-.635,2.135-1.138,3.817-1.5,5.031-.168.532-.3.96-.411,1.3a1.813,1.813,0,0,1-.169.435,1.94,1.94,0,0,1,.083-.46c.085-.347.193-.783.326-1.326.323-1.224.772-2.921,1.34-5.075,1.167-4.407,2.975-10.753,5.319-18.561,4.678-15.62,11.727-37.036,20.7-60.26,8.985-23.207,18.174-43.793,25.221-58.5,3.519-7.355,6.451-13.266,8.553-17.312,1.028-1.977,1.839-3.535,2.422-4.658l.651-1.2A1.84,1.84,0,0,1,875.447,412.712Z" transform="translate(-810.584 -412.712)" fill="#272733"/>
      </g>
    </g>
    <g id="Group_16301" data-name="Group 16301" transform="translate(806.246 546.039)">
      <g id="Group_16300" data-name="Group 16300">
        <path id="Path_55338" data-name="Path 55338" d="M812.048,552.42a2.857,2.857,0,0,1-.191-.781c-.1-.618-.227-1.363-.376-2.259-.292-1.964-.788-4.8-1.48-8.279s-1.647-7.6-2.879-12.126c-1.271-4.514-2.829-9.432-4.727-14.5-1.927-5.06-4.008-9.782-6.037-14.01-2.068-4.211-4.06-7.94-5.853-11s-3.282-5.522-4.362-7.19c-.48-.772-.88-1.414-1.211-1.944a2.767,2.767,0,0,1-.372-.714,2.844,2.844,0,0,1,.518.612c.369.508.814,1.12,1.349,1.856,1.169,1.613,2.755,4.023,4.611,7.063s3.929,6.751,6.047,10.963c2.08,4.231,4.2,8.969,6.134,14.057,1.908,5.1,3.45,10.05,4.685,14.6,1.2,4.561,2.105,8.709,2.709,12.222s1.018,6.366,1.207,8.349c.085.907.155,1.66.215,2.284A2.756,2.756,0,0,1,812.048,552.42Z" transform="translate(-784.557 -479.611)" fill="#272733"/>
      </g>
    </g>
    <g id="Group_16302" data-name="Group 16302" transform="translate(801.113 608.83)">
      <rect id="Rectangle_3701" data-name="Rectangle 3701" width="82.157" height="16.759" fill="#f3f3e0"/>
    </g>
    <g id="Group_16303" data-name="Group 16303" transform="translate(808.941 625.589)">
      <path id="Path_55339" data-name="Path 55339" d="M786.275,530.316l8.886,56.37h49.644l8.283-56.37Z" transform="translate(-786.275 -530.316)" fill="#f3f3e0"/>
    </g>
    <g id="Group_16305" data-name="Group 16305" transform="translate(808.808 625.149)">
      <g id="Group_16304" data-name="Group 16304">
        <path id="Path_55340" data-name="Path 55340" d="M855.611,530.475c0,.243-15.541.441-34.708.441s-34.713-.2-34.713-.441,15.538-.439,34.713-.439S855.611,530.234,855.611,530.475Z" transform="translate(-786.19 -530.036)" fill="#272733"/>
      </g>
    </g>
  </g>
</svg>
