<svg xmlns="http://www.w3.org/2000/svg" width="52" height="70.95" viewBox="739 1494 52 70.95"><g data-name="Groupe 15992"><g data-name="Union 1"><path d="M745 1560a6 6 0 0 1-6-6v-48a6 6 0 0 1 6-6h11.252a8.004 8.004 0 0 1 15.496 0H782c3.314 0 6 2.686 6 6v48c0 3.314-2.686 6-6 6h-37Z" fill="#fff" fill-rule="evenodd"/><path d="M6 66a6 6 0 0 1-6-6V12a6 6 0 0 1 6-6h11.252a8.004 8.004 0 0 1 15.496 0H43c3.314 0 6 2.686 6 6v48c0 3.314-2.686 6-6 6H6Z" stroke-linejoin="round" stroke-linecap="round" stroke-width="2" stroke="#272733" fill="transparent" transform="matrix(.95918 0 0 .9697 740 1495)"/></g><path d="M745 1506h37v48h-37v-48z" fill="#e76936" fill-rule="evenodd" data-name="Rectangle 3409"/><path d="M761 1501.9a3 3 0 1 1 0 .1z" fill="#272733" fill-rule="evenodd" data-name="Ellipse 301"/><path d="M748.5 1502v8.61h30.097v-9.954" stroke-linejoin="round" stroke-linecap="round" stroke="#272733" fill="transparent" data-name="Tracé 55253"/><g data-name="Groupe 15991"><g data-name="Interface / Check"><path d="m747 1524.243 2.03 2.029 4.057-4.059" stroke-linejoin="round" stroke-linecap="round" stroke-width="2" stroke="#272733" fill="transparent" data-name="Vector"/></g><path d="M759.18 1524.5h21" stroke-linejoin="round" stroke-linecap="round" stroke-width="2" stroke="#272733" fill="transparent" data-name="Ligne 382"/><path d="M759.18 1531.5h21" stroke-linejoin="round" stroke-linecap="round" stroke-width="2" stroke="#272733" fill="transparent" data-name="Ligne 383"/><path d="M759.18 1538.5h21" stroke-linejoin="round" stroke-linecap="round" stroke-width="2" stroke="#272733" fill="transparent" data-name="Ligne 384"/><path d="M759.18 1545.5h21" stroke-linejoin="round" stroke-linecap="round" stroke-width="2" stroke="#272733" fill="transparent" data-name="Ligne 385"/></g><g data-name="Groupe 15990"><g data-name="Ellipse 290"><path d="M769 1553.9a11 11 0 1 1 0 .1z" fill="#e76936" fill-rule="evenodd"/><path d="M770 1553.905a10 10 0 1 1 0 .09z" stroke-linejoin="round" stroke-linecap="round" stroke-width="1.81818" stroke="#fff" fill="transparent"/></g><g data-name="Interface / Check"><path d="m774.923 1554.205 3.59 3.59 7.18-7.18" stroke-linejoin="round" stroke-linecap="round" stroke-width="2" stroke="#fff" fill="transparent" data-name="Vector"/></g></g></g></svg>