<svg xmlns="http://www.w3.org/2000/svg" width="38.811" height="45.967" viewBox="1250 1147 38.811 45.967"><g data-name="Groupe 15986"><g data-name="Tracé 55246"><path d="M1273.17 1147.001s-14.75.02-16.758 0c-2.008-.02-2.394.188-3.405.723-1.01.534-1.163.808-1.669 1.414-.505.607-.459.675-.707 1.314-.249.64-.287-8.206-.287 1.244s.038 26.888.287 36.558c.248 9.67.32 1.331.707 2.123.387.792.208.514.84 1.044.632.531-6.272.8 1.687 1.078 7.96.278 29.587.03 30.626 0 1.039-.03 1.432-.335 2.13-.903.698-.567.445-.01 1.135-1.004.69-.995.862-.873.911-2.925.05-2.052 0-4.277 0-4.277v-21.116h-1.635c-2.498 0-5.464.11-8.356 0-2.893-.11-2.489-.153-3.215-.44-.725-.286-.54-.248-1.112-.706-.573-.459-.7-.549-1.178-1.128-.48-.579-.497-.542-.738-1.188-.24-.647-.223-1.397-.223-1.397v-9.963l.96-.45Z" fill="#e76936" fill-rule="evenodd"/><path d="M875.916 1060.162s-14.75.02-16.758 0c-2.008-.02-2.394.188-3.405.722-1.01.534-1.163.808-1.669 1.415-.505.606-.459.674-.707 1.314-.249.64-.287-8.207-.287 1.244 0 9.45.038 26.888.287 36.558.248 9.67.32 1.33.707 2.122.387.792.208.514.84 1.045.631.53-6.273.8 1.687 1.078s29.587.03 30.626 0c1.038-.03 1.431-.336 2.13-.903.698-.568.445-.01 1.135-1.004.69-.995.862-.873.911-2.925.05-2.052 0-4.278 0-4.278v-21.116h-1.636c-2.497 0-5.463.11-8.355 0-2.893-.11-2.489-.152-3.215-.439-.725-.286-.54-.248-1.112-.707-.573-.458-.7-.548-1.179-1.127-.478-.58-.497-.542-.737-1.189-.24-.646-.223-1.396-.223-1.396v-9.964l.96-.45Z" stroke-linejoin="round" stroke-linecap="round" stroke-width="5" stroke="#fff" fill="transparent" transform="matrix(.87117 0 0 .89123 509.612 204.658)"/></g><g data-name="File / File_Document"><path d="M1272.22 1147.004c-.262-.003-.556-.003-.892-.003h-12.263c-3.07 0-4.606 0-5.778.554a5.293 5.293 0 0 0-2.395 2.217c-.597 1.086-.597 2.508-.597 5.35v29.436c0 2.842 0 4.262.597 5.348a5.296 5.296 0 0 0 2.395 2.219c1.171.552 2.705.552 5.77.552h20.844c3.064 0 4.596 0 5.767-.552a5.302 5.302 0 0 0 2.398-2.22c.596-1.084.596-2.502.596-5.339v-21.513c0-.311 0-.584-.002-.826m-16.44-15.223c.782.006 1.275.033 1.748.138.56.124 1.096.33 1.586.608.553.314 1.028.753 1.975 1.63l8.566 7.931c.947.878 1.419 1.316 1.758 1.828.3.454.522.95.657 1.467.113.438.143.896.15 1.62m-16.44-15.222v7.103c0 2.842 0 4.263.597 5.349a5.295 5.295 0 0 0 2.394 2.218c1.172.553 2.706.553 5.77.553h7.679" stroke-linejoin="round" stroke-linecap="round" stroke="#272733" fill="transparent" data-name="Vector"/><path d="M1256.434 1170.99h23.53M1256.434 1177.129h23.53" stroke-linejoin="round" stroke-linecap="round" stroke="#272733" fill="transparent" data-name="Ligne 6"/></g></g></svg>