<svg xmlns="http://www.w3.org/2000/svg" width="42.64" height="45.676" viewBox="1600 1147 42.64 45.676"><g data-name="Groupe 15989"><path d="M1604 1147h34a4 4 0 0 1 4 4v34a4 4 0 0 1-4 4h-34a4 4 0 0 1-4-4v-34a4 4 0 0 1 4-4z" fill="#fff" fill-rule="evenodd" data-name="Rectangle 3413"/><g data-name="Groupe 15985"><path d="M1636.823 1153.556h-31.067v3.464h1.285l1.061.671.67.67v2.068l-.67.503-1.061.391h-1.285v14.64h1.9l.726.95.39.95v1.061l-.39.727-.727.503-1.9.279v3.409h31.068v-30.286Z" fill="#e76936" fill-rule="evenodd" data-name="Tracé 34941"/><g data-name="Groupe 13171"><g data-name="Groupe 13170"><path d="M1621.365 1176.438a7.66 7.66 0 0 0 7.693-7.691c0-2.09-.76-3.989-2.28-5.413a7.678 7.678 0 0 0-10.92 0c-1.425 1.424-2.28 3.418-2.28 5.413.096 4.177 3.515 7.69 7.787 7.69Zm-5.033-11.87 2.184 2.184c-.285.38-.475.855-.569 1.424h-3.134c.19-1.424.664-2.659 1.519-3.608Zm11.49 3.514h-3.134a4.466 4.466 0 0 0-.568-1.424l2.183-2.184c.95 1.043 1.424 2.278 1.52 3.608Zm-1.424 4.748-2.184-2.184c.285-.38.474-.856.57-1.424h3.038c-.095 1.424-.57 2.658-1.424 3.608Zm-6.647-5.698c.854-.855 2.279-.855 3.228 0 .856.854.856 2.279 0 3.228-.474.38-.95.665-1.614.665-1.235 0-2.278-1.044-2.278-2.278 0-.665.285-1.236.664-1.615Zm-.38 4.368c.38.285.855.474 1.425.57v3.134c-1.33-.096-2.565-.666-3.609-1.52l2.185-2.184Zm2.565.57c.475-.096.95-.285 1.424-.57l2.184 2.184c-1.045.854-2.28 1.33-3.608 1.52v-3.134Zm1.424-6.172c-.38-.286-.855-.475-1.424-.57v-3.134c1.328.095 2.563.665 3.608 1.519l-2.184 2.185Zm-2.564-.57c-.475.095-.95.284-1.424.57l-2.185-2.185c1.044-.854 2.279-1.329 3.61-1.52v3.134Zm-2.849 3.988c.094.474.284.95.57 1.424l-2.185 2.184c-.855-1.044-1.33-2.278-1.52-3.608h3.135Z" fill="#272733" fill-rule="evenodd" data-name="Tracé 34939"/><path d="M1638.648 1147h-34.566a4.053 4.053 0 0 0-4.082 4.083v34.566a4.053 4.053 0 0 0 4.082 4.083h1.235v2.374c0 .285.286.57.57.57h11.3c.286 0 .57-.285.57-.57v-2.374h7.691v2.374c0 .285.286.57.57.57h11.3c.286 0 .57-.285.57-.57v-2.374h.666a4.053 4.053 0 0 0 4.083-4.083v-34.47c.094-2.28-1.71-4.179-3.99-4.179Zm-2.468 29.722H1632c-.284 0-.568.285-.568.571 0 .285.284.569.569.569h4.179v1.805h-15.384c-.285 0-.57.285-.57.569 0 .285.285.57.57.57h15.478v2.374h-29.722v-2.374h.284c1.52 0 2.66-1.235 2.66-2.66a2.656 2.656 0 0 0-2.66-2.658h-.284v-2.374h3.608c.286 0 .57-.284.57-.569 0-.286-.284-.57-.57-.57h-3.608v-5.983h1.803c.285 0 .571-.284.571-.569 0-.286-.286-.57-.57-.57h-1.804v-2.943h.284c1.52 0 2.66-1.235 2.66-2.66 0-1.52-1.236-2.66-2.66-2.66h-.284v-2.373h29.722v22.505h-.094Zm-30.863-1.234h-4.178v-13.578h4.178v13.578Zm-4.178 1.234h5.602a1.5 1.5 0 0 1 1.52 1.52c0 .854-.664 1.519-1.52 1.519h-5.602v-3.039Zm5.697-18.992a1.5 1.5 0 0 1 1.52 1.52 1.5 1.5 0 0 1-1.52 1.52h-5.602v-3.04h5.602Zm9.782 33.807h-10.066v-1.805h10.066v1.805Zm20.13 0h-10.064v-1.805h10.065v1.805Zm4.749-5.888a2.958 2.958 0 0 1-2.943 2.943h-34.567a2.959 2.959 0 0 1-2.943-2.943v-4.843h4.179v2.944c0 .284.284.57.569.57h30.862c.285 0 .57-.286.57-.57v-30.293c0-.285-.285-.569-.57-.569h-30.767c-.284 0-.57.284-.57.57v3.133h-4.178v-5.602a2.959 2.959 0 0 1 2.943-2.944h34.566a2.958 2.958 0 0 1 2.943 2.944v34.66h-.094Z" fill="#272733" fill-rule="evenodd" data-name="Tracé 34940"/></g></g></g></g></svg>