<svg xmlns="http://www.w3.org/2000/svg" width="26" height="26" viewBox="0 0 26 26">
  <g id="Interface_Log_Out" data-name="Interface / Log_Out" transform="translate(-3 -3)">
    <path id="Vector" d="M12.125,8.873V8.8a7.456,7.456,0,0,1,.327-3.163,3,3,0,0,1,1.311-1.311A7.456,7.456,0,0,1,16.925,4h6.9a7.447,7.447,0,0,1,3.161.327A3,3,0,0,1,28.3,5.638,7.443,7.443,0,0,1,28.625,8.8v14.41a7.436,7.436,0,0,1-.327,3.156,3,3,0,0,1-1.312,1.311A7.436,7.436,0,0,1,23.83,28H16.92a7.443,7.443,0,0,1-3.158-.327,3,3,0,0,1-1.311-1.312,7.45,7.45,0,0,1-.327-3.161v-.075" transform="translate(-0.625)" fill="none" stroke="#939399" stroke-linecap="round" stroke-linejoin="round" stroke-width="2"/>
    <g id="Arrow_Arrow_Down_SM" data-name="Arrow / Arrow_Down_SM" transform="translate(4 19.692) rotate(-90)">
      <path id="Vector-2" data-name="Vector" d="M3.692,0V12.923m0,0L7.385,9.231M3.692,12.923,0,9.231" fill="none" stroke="#e76936" stroke-linecap="round" stroke-linejoin="round" stroke-width="2"/>
    </g>
  </g>
</svg>
