<svg xmlns="http://www.w3.org/2000/svg" width="24.475" height="25" viewBox="0 0 24.475 25">
  <g id="Icon" transform="translate(0.5 -0.09)">
    <path id="Shape" d="M22.194,24a1.277,1.277,0,0,1-.922-.388l-5.831-5.985A9.837,9.837,0,0,1,0,9.69,9.765,9.765,0,0,1,9.816,0a9.765,9.765,0,0,1,9.816,9.69,9.614,9.614,0,0,1-2.3,6.23l5.787,5.94a1.253,1.253,0,0,1-.036,1.787A1.28,1.28,0,0,1,22.194,24ZM9.816,2.528A7.217,7.217,0,0,0,2.561,9.69a7.256,7.256,0,0,0,14.512,0A7.218,7.218,0,0,0,9.816,2.528Z" transform="translate(0 0.59)" fill="#52525b" stroke="#52525b" stroke-miterlimit="10" stroke-width="1"/>
  </g>
</svg>
