<svg id="smart_toy_24dp_5F6368" xmlns="http://www.w3.org/2000/svg" width="24" height="24" viewBox="0 0 24 24">
  <g id="Group_16329" data-name="Group 16329">
    <rect id="Rectangle_3725" data-name="Rectangle 3725" width="24" height="24" transform="translate(0)" fill="none"/>
  </g>
  <g id="Group_16330" data-name="Group 16330" transform="translate(1 2)">
    <path id="Path_55352" data-name="Path 55352" d="M20,9V7a2.006,2.006,0,0,0-2-2H15A3,3,0,0,0,9,5H6A2.006,2.006,0,0,0,4,7V9a3,3,0,0,0,0,6v4a2.006,2.006,0,0,0,2,2H18a2.006,2.006,0,0,0,2-2V15a3,3,0,0,0,0-6ZM7.5,11.5A1.5,1.5,0,1,1,9,13,1.5,1.5,0,0,1,7.5,11.5ZM16,17H8V15h8Zm-1-4a1.5,1.5,0,1,1,1.5-1.5A1.5,1.5,0,0,1,15,13Z" transform="translate(-1 -2)" fill="#e76936"/>
  </g>
</svg>
