<svg xmlns="http://www.w3.org/2000/svg" width="24.729" height="24.729" viewBox="0 0 24.729 24.729">
  <g id="Warning_Square_Help" data-name="Warning / Square_Help" transform="translate(-1.5 -1.5)">
    <path id="Vector" d="M10.42,10.332a3.622,3.622,0,1,1,3.445,4.74v1.208m.06,3.621v.121H13.8V19.9ZM3,20.867v-14a6,6,0,0,1,.263-2.545A2.413,2.413,0,0,1,4.318,3.263,6,6,0,0,1,6.863,3h14a5.993,5.993,0,0,1,2.544.263,2.416,2.416,0,0,1,1.056,1.055,5.99,5.99,0,0,1,.263,2.541V20.871a5.984,5.984,0,0,1-.263,2.54,2.417,2.417,0,0,1-1.056,1.055,5.984,5.984,0,0,1-2.54.263H6.859a5.99,5.99,0,0,1-2.541-.263,2.414,2.414,0,0,1-1.055-1.055A6,6,0,0,1,3,20.867Z" transform="translate(0 0)" fill="none" stroke="#e76936" stroke-linecap="round" stroke-linejoin="round" stroke-width="3"/>
  </g>
</svg>
