<svg xmlns="http://www.w3.org/2000/svg" width="46" height="39" viewBox="1774 1151 46 39"><g data-name="Groupe 15988"><g data-name="Rectangle 3407"><path d="M1774 1184v-27a6 6 0 0 1 6-6h34a6 6 0 0 1 6 6v27a6 6 0 0 1-6 6h-34a6 6 0 0 1-6-6z" fill="#fff" fill-rule="evenodd"/><path d="M6 0h27a6 6 0 0 1 6 6v34a6 6 0 0 1-6 6H6a6 6 0 0 1-6-6V6a6 6 0 0 1 6-6z" stroke-linejoin="round" stroke-linecap="round" stroke="#272733" fill="transparent" transform="matrix(0 -.97436 .97826 0 1774.5 1189.5)"/></g><path d="M1780 1184v-27h34v27h-34z" fill="#e76936" fill-rule="evenodd" data-name="Rectangle 3409"/><path d="M1780.68 1164.505h23.53" stroke-linejoin="round" stroke-linecap="round" stroke="#272733" fill="transparent" data-name="Ligne 380"/><path d="M1780.68 1170.644h23.53" stroke-linejoin="round" stroke-linecap="round" stroke="#272733" fill="transparent" data-name="Ligne 381"/></g></svg>