<svg xmlns="http://www.w3.org/2000/svg" width="80.66" height="96.064" viewBox="325.808 436.393 80.66 96.064"><g data-name="Groupe 354"><g data-name="Groupe 348"><g data-name="Groupe 347" transform="translate(343 463.962)" clip-path="url(&quot;#a&quot;)"><g data-name="Groupe 346"><path d="m-17.192 17.192 44.76-44.76 7.18 7.18-44.76 44.76-7.18-7.18z" fill="#d2006b" fill-rule="evenodd" data-name="Rectangle 70"/><path d="m-10.013 24.372 44.761-44.76 7.18 7.179-44.761 44.76-7.18-7.179z" fill="#e42e45" fill-rule="evenodd" data-name="Rectangle 71"/><path d="m-2.833 31.552 44.76-44.761 7.18 7.18-44.76 44.76-7.18-7.18z" fill="#e76936" fill-rule="evenodd" data-name="Rectangle 72"/><path d="M4.347 38.732 49.107-6.03l7.18 7.18-44.76 44.76-7.18-7.18z" fill="#ec9850" fill-rule="evenodd" data-name="Rectangle 73"/><path d="m11.527 45.911 44.76-44.76 7.18 7.18-44.76 44.76-7.18-7.18z" fill="#e1e489" fill-rule="evenodd" data-name="Rectangle 74"/></g></g></g><g data-name="Groupe 350"><g data-name="Groupe 349" transform="translate(343 463.962)" clip-path="url(&quot;#b&quot;)"><path d="M35.421 9.316H29.34C13.136 9.316 0 22.452 0 38.656h35.421c8.102 0 14.67-6.568 14.67-14.67s-6.568-14.67-14.67-14.67Z" fill="#5e5e5e" fill-rule="evenodd" data-name="Tracé 347"/></g></g><g data-name="Groupe 353"><g data-name="Groupe 352" transform="translate(343 475.55)" clip-path="url(&quot;#c&quot;)"><g data-name="Groupe 351"><path d="m-17.192 12.147 7.18-7.18 44.76 44.76-7.18 7.18-44.76-44.76z" fill="#d2006b" fill-rule="evenodd" data-name="Rectangle 75"/><path d="m-10.013 4.967 7.18-7.18 44.76 44.761-7.179 7.18-44.76-44.761z" fill="#e42e45" fill-rule="evenodd" data-name="Rectangle 76"/><path d="m-2.833-2.213 7.18-7.18 44.76 44.761-7.18 7.18-44.76-44.76z" fill="#e76936" fill-rule="evenodd" data-name="Rectangle 77"/><path d="m4.347-9.393 7.18-7.18 44.76 44.761-7.18 7.18-44.76-44.76z" fill="#ec9850" fill-rule="evenodd" data-name="Rectangle 78"/><path d="m11.527-16.572 7.18-7.18 44.76 44.76-7.18 7.18-44.76-44.76z" fill="#e1e489" fill-rule="evenodd" data-name="Rectangle 79"/></g></g></g></g><defs><clipPath id="a"><path d="M378.421 463.962H343c0 16.203 13.136 29.339 29.339 29.339h6.082c8.102 0 14.67-6.567 14.67-14.67 0-8.102-6.568-14.669-14.67-14.669Z" data-name="SVGID" transform="translate(-343 -463.962)"/></clipPath><clipPath id="b"><path d="M393.091 478.632c0-8.102-6.568-14.67-14.67-14.67H343c0 7.962 3.176 15.177 8.324 20.463-5.148 5.286-8.324 12.502-8.324 20.464h35.421c8.102 0 14.67-6.568 14.67-14.67 0-2.058-.425-4.016-1.19-5.794a14.612 14.612 0 0 0 1.19-5.793Z" data-name="SVGID" transform="translate(-343 -463.962)"/></clipPath><clipPath id="c"><path d="M378.421 484.369h-6.082c-16.203 0-29.339 13.136-29.339 29.339h35.421c8.102 0 14.67-6.568 14.67-14.67s-6.568-14.669-14.67-14.669Z" data-name="SVGID" transform="translate(-343 -484.369)"/></clipPath></defs></svg>